<?xml version="1.0" encoding="iso-8859-1"?>
<!-- Generator: Adobe Illustrator 21.0.2, SVG Export Plug-In . SVG Version: 6.00 Build 0)  -->
<svg version="1.1" xmlns="http://www.w3.org/2000/svg" xmlns:xlink="http://www.w3.org/1999/xlink" x="0px" y="0px"
	 viewBox="0 0 13.689 13.831" style="enable-background:new 0 0 13.689 13.831;" xml:space="preserve">
<g id="Studio_x5F_Sofia">
	<path d="M5.569,0.15c1.104-0.228,2.26-0.197,3.349,0.094c1.215,0.331,2.349,0.984,3.218,1.899c0.694,0.697,1.215,1.558,1.553,2.481
		c-0.606,0.267-1.226,0.501-1.833,0.765c-0.304,0.13-0.614,0.247-0.915,0.382c-0.302-1.027-1.053-1.9-1.997-2.396
		c-0.752-0.388-1.624-0.54-2.463-0.422C5.712,3.05,4.979,3.384,4.386,3.879C4.108,4.141,3.83,4.409,3.626,4.734
		C3.232,5.33,3.002,6.033,2.974,6.746C2.942,7.412,3.089,8.084,3.387,8.679c0.585,1.19,1.796,2.035,3.11,2.196
		c0.766,0.101,1.562-0.011,2.264-0.337c0.862-0.39,1.579-1.095,1.979-1.953c0.084-0.168,0.141-0.348,0.208-0.523
		c0.73,0.297,1.452,0.613,2.182,0.91c0.186,0.082,0.378,0.149,0.56,0.239c-0.377,1.016-0.976,1.954-1.773,2.69
		c-0.904,0.862-2.05,1.469-3.269,1.746C7.926,13.804,7.18,13.876,6.444,13.8c-1.802-0.133-3.541-0.998-4.728-2.361
		C0.708,10.304,0.09,8.823,0.017,7.305C-0.027,6.803,0.019,6.297,0.094,5.8C0.31,4.453,0.949,3.179,1.892,2.195
		C2.868,1.157,4.173,0.435,5.569,0.15z"/>
	<path d="M4.888,3.927c1.181-0.844,2.859-0.892,4.096-0.14C9.245,3.938,9.47,4.14,9.696,4.337c0.081,0.072,0.135,0.168,0.213,0.244
		c0.333,0.378,0.563,0.837,0.716,1.315C9.82,6.233,9.01,6.559,8.212,6.909c0.801,0.346,1.604,0.687,2.413,1.015
		c-0.324,1.122-1.219,2.054-2.321,2.435c-0.712,0.246-1.496,0.283-2.224,0.089c-1.333-0.329-2.435-1.466-2.691-2.818
		C3.248,6.942,3.316,6.215,3.576,5.564C3.841,4.906,4.305,4.33,4.888,3.927z M6.916,5.788C6.47,5.835,6.064,6.16,5.938,6.593
		c-0.09,0.28-0.054,0.594,0.089,0.85C6.191,7.752,6.505,7.97,6.848,8.029C7.236,8.103,7.652,7.947,7.91,7.651
		c0.244-0.265,0.335-0.653,0.249-1C8.04,6.105,7.466,5.715,6.916,5.788z"/>
</g>
<g id="Layer_1">
</g>
</svg>
